<!DOCTYPE svg PUBLIC "-//W3C//DTD SVG 1.1//EN" "http://www.w3.org/Graphics/SVG/1.1/DTD/svg11.dtd">
<!-- Uploaded to: SVG Repo, www.svgrepo.com, Transformed by: SVG Repo Mixer Tools -->
<svg width="80px" height="80px" viewBox="0 0 36 36" xmlns="http://www.w3.org/2000/svg" xmlns:xlink="http://www.w3.org/1999/xlink" aria-hidden="true" role="img" class="iconify iconify--twemoji" preserveAspectRatio="xMidYMid meet" fill="#000000">
<g id="SVGRepo_bgCarrier" stroke-width="0"/>
<g id="SVGRepo_tracerCarrier" stroke-linecap="round" stroke-linejoin="round"/>
<g id="SVGRepo_iconCarrier">
<path fill="#DD2E44" d="M36 27a4 4 0 0 1-4 4H4a4 4 0 0 1-4-4v-3a4 4 0 0 1 4-4h28a4 4 0 0 1 4 4v3z"/>
<path fill="#FFCC4D" d="M19 13l-.979-1H7.146C4 12 3 14 3 14l-3 5.959V25h19V13z"/>
<path fill="#55ACEE" d="M9 20H2l2-4s1-2 3-2h2v6z"/>
<circle fill="#292F33" cx="9" cy="31" r="4"/>
<circle fill="#CCD6DD" cx="9" cy="31" r="2"/>
<circle fill="#292F33" cx="27" cy="31" r="4"/>
<circle fill="#CCD6DD" cx="27" cy="31" r="2"/>
<path fill="#CCD6DD" d="M32 8H17a4 4 0 0 0-4 4v13h23V12a4 4 0 0 0-4-4z"/>
</g>
</svg>